<svg width="435" height="434" viewBox="0 0 435 434" fill="none" xmlns="http://www.w3.org/2000/svg">
<path d="M181.008 136.969C174.201 138.854 166.412 143.95 162.903 148.837C159.535 153.584 131.113 202.94 129.499 206.78C127.745 211.108 127.464 223.325 129.008 227.793C129.499 229.329 137.078 243.012 145.85 258.161C163.956 289.576 165.71 291.879 175.184 296.417L180.658 299H217.5H254.342L259.816 296.417C269.29 291.879 271.044 289.576 289.15 258.161C297.922 243.012 305.501 229.329 305.992 227.793C307.536 223.325 307.255 211.108 305.501 206.78C303.887 202.94 275.465 153.584 272.097 148.837C268.518 143.81 260.728 138.854 253.641 136.969C248.798 135.642 185.71 135.712 181.008 136.969ZM253.641 147.929C261.009 150.652 262.974 153.235 279.886 182.486C288.378 197.146 295.606 210.34 296.027 211.806C297.08 215.506 297.009 220.323 295.887 224.023C294.413 228.77 264.728 279.732 261.641 282.664C260.237 284.06 257.36 286.015 255.325 287.062L251.606 288.877H217.64H183.745L179.886 287.062C177.71 286.085 174.833 284.13 173.359 282.664C170.272 279.732 140.587 228.77 139.113 224.023C137.991 220.323 137.92 215.506 138.973 211.806C139.394 210.34 146.622 197.146 155.114 182.486C171.886 153.444 173.991 150.652 181.149 147.929C184.658 146.603 186.482 146.533 217.289 146.533C248.448 146.463 249.851 146.533 253.641 147.929Z" fill="black"/>
<path d="M177.5 145H176.085L175.356 146.214L133.356 216.214L132.579 217.509L133.365 218.8L175.365 287.8L176.095 289H177.5H259.5H260.959L261.676 287.73L300.676 218.73L301.41 217.432L300.617 216.17L256.617 146.17L255.881 145H254.5H177.5Z" fill="black" stroke="black" stroke-width="5"/>
<path d="M194.023 1.288C144.157 6.44317 102.335 26.7416 63.408 65.7276C43.1402 85.7039 36.0626 95.692 24.1593 120.501C1.96122 166.898 -4.15128 202.984 2.60465 247.447C15.1514 330.897 72.0942 398.88 152.2 425.301C174.398 432.711 183.406 434 218.151 434C253.218 434 261.904 432.711 284.102 425.301C321.42 413.057 347.157 396.303 375.468 366.338C416.647 322.842 434.663 277.734 434.984 218.449C435.306 178.819 430.802 159.165 412.786 121.79C385.441 65.0832 335.897 23.8419 275.416 7.73196C247.427 0.321407 224.264 -1.61178 194.023 1.288ZM261.904 53.8063C338.471 74.1048 394.449 153.043 387.371 229.726C377.398 334.441 280.241 406.291 180.189 382.771C92.0403 361.828 33.8106 272.257 52.1481 185.263C65.3383 122.112 112.952 70.5606 172.79 53.8063C192.736 48.3289 241.636 48.3289 261.904 53.8063Z" fill="black"/>
</svg>
